<svg width="24" height="20" viewBox="0 0 24 20" fill="none" xmlns="http://www.w3.org/2000/svg">
<path d="M20.2094 1.5625H18.125V0.625C18.125 0.279844 17.8004 0 17.4 0C16.9996 0 16.675 0.279844 16.675 0.625V1.5625H6.525V0.625C6.525 0.279844 6.20043 0 5.8 0C5.39957 0 5.075 0.279844 5.075 0.625V1.5625H2.99063C1.34157 1.5625 0 2.71902 0 4.14062V17.4219C0 18.8435 1.34157 20 2.99063 20H20.2094C21.8584 20 23.2 18.8435 23.2 17.4219V4.14062C23.2 2.71902 21.8584 1.5625 20.2094 1.5625ZM2.99063 2.8125H5.075V3.4375C5.075 3.78266 5.39957 4.0625 5.8 4.0625C6.20043 4.0625 6.525 3.78266 6.525 3.4375V2.8125H16.675V3.4375C16.675 3.78266 16.9996 4.0625 17.4 4.0625C17.8004 4.0625 18.125 3.78266 18.125 3.4375V2.8125H20.2094C21.0589 2.8125 21.75 3.40828 21.75 4.14062V5.625H1.45V4.14062C1.45 3.40828 2.14111 2.8125 2.99063 2.8125ZM20.2094 18.75H2.99063C2.14111 18.75 1.45 18.1542 1.45 17.4219V6.875H21.75V17.4219C21.75 18.1542 21.0589 18.75 20.2094 18.75Z" fill="#5E728A"/>
</svg>
